<svg width="408" height="262" viewBox="0 0 408 262" fill="none" xmlns="http://www.w3.org/2000/svg">
<mask id="mask0" mask-type="alpha" maskUnits="userSpaceOnUse" x="1" y="1" width="407" height="261">
<path d="M20.9918 261H387.008C398.004 261 407 251.824 407 240.608V21.3922C407 10.1765 398.004 1 387.008 1L20.9918 1C9.99631 1 1 10.1765 1 21.3922L1 240.608C1 251.824 9.99631 261 20.9918 261Z" fill="#7EBEE8" stroke="#7EBEE8" stroke-width="0" stroke-miterlimit="0"/>
</mask>
<g mask="url(#mask0)">
<path d="M468.987 -29.0796L-15.373 -29.0796L-15.373 299.744H468.987L468.987 -29.0796Z" fill="#FCD73F"/>
<path d="M267.989 204.429C268.156 205.109 267.989 206.114 267.989 206.794C267.989 214.611 261.306 220.898 252.952 221.068C252.785 221.068 252.785 221.068 252.618 221.068C252.451 221.068 252.451 221.068 252.284 221.068C244.933 220.898 238.751 215.97 237.581 209.343C236.412 215.97 230.23 221.238 222.878 221.408C222.711 221.408 222.711 221.408 222.544 221.408C222.377 221.408 222.377 221.408 222.21 221.408C215.527 221.238 209.846 217.16 208.008 211.382C206.003 216.99 200.49 221.068 193.807 221.238C193.64 221.238 193.64 221.238 193.473 221.238C193.305 221.238 193.305 221.238 193.138 221.238C184.784 221.068 178.101 214.781 178.101 206.964C178.101 206.284 178.101 205.774 178.268 205.094H130.651L130.651 300.088L287.705 299.748V211.552V204.429H267.989ZM193.64 249.957C193.473 249.957 193.473 249.957 193.305 249.957C193.138 249.957 193.138 249.957 192.971 249.957C184.617 249.787 177.934 243.5 177.934 235.683C177.934 227.866 184.784 221.408 193.305 221.408C201.826 221.408 208.677 227.866 208.677 235.683C208.677 243.5 201.993 249.787 193.64 249.957Z" fill="#9E0040"/>
<path d="M193.305 222.937C184.784 222.937 177.934 229.904 177.934 238.571C177.934 247.067 184.617 253.865 192.971 254.204C193.138 254.204 193.138 254.204 193.305 254.204C193.472 254.204 193.472 254.204 193.639 254.204C201.993 254.035 208.676 247.067 208.676 238.571C208.676 229.904 201.826 222.937 193.305 222.937ZM205 236.701L201.325 236.531L203.33 239.76L200.823 241.289L199.153 237.891L197.482 241.289L194.976 239.76L196.981 236.701L193.305 236.871V233.812L196.981 233.982L194.976 230.754L197.482 229.224L199.153 232.623L200.823 229.224L203.33 230.754L201.325 233.982L205 233.812V236.701Z" fill="#FCD73F"/>
<path d="M203.331 230.754L200.658 229.224L198.987 232.453L197.317 229.224L194.81 230.754L196.815 233.812L193.14 233.642V236.701L196.815 236.531L194.81 239.59L197.317 241.12L198.987 237.721L200.658 241.12L203.164 239.59L201.326 236.361L205.002 236.701V233.642L201.326 233.812L203.331 230.754Z" fill="#007020"/>
<path d="M222.209 190.99C222.376 190.99 222.376 190.99 222.543 190.99C222.71 190.99 222.71 190.99 222.877 190.99C231.231 190.82 237.915 183.852 237.915 175.355C237.915 166.689 231.064 159.721 222.543 159.721C214.022 159.721 207.172 166.689 207.172 175.355C207.172 184.022 213.855 190.82 222.209 190.99ZM222.376 170.597L226.052 170.767L224.047 167.538L226.553 166.009L228.224 169.408L229.895 166.009L232.401 167.538L230.396 170.767L234.072 170.597V173.656L230.396 173.486L232.401 176.715L229.895 178.244L228.224 174.846L226.553 178.244L224.047 176.715L226.052 173.656L222.376 173.826V170.597Z" fill="#F27E00"/>
<path d="M224.046 176.544L226.552 177.903L228.223 174.675L229.894 177.903L232.4 176.544L230.562 173.315L234.071 173.485V170.596L230.562 170.766L232.4 167.537L229.894 166.178L228.223 169.407L226.552 166.178L224.046 167.537L225.884 170.766L222.375 170.596V173.485H225.884L224.046 176.544Z" fill="#007020"/>
<path d="M222.211 159.04C222.378 159.04 222.378 159.04 222.545 159.04C222.712 159.04 222.712 159.04 222.879 159.04C231.233 158.87 237.916 151.902 237.916 143.406C237.916 134.739 231.066 127.772 222.545 127.772C214.024 127.772 207.174 134.739 207.174 143.406C207.174 151.902 213.857 158.87 222.211 159.04ZM222.378 138.648L226.054 138.818L224.049 135.589L226.555 134.059L228.226 137.458L229.897 134.059L232.403 135.589L230.398 138.818L234.074 138.648V141.706L230.398 141.536L232.403 144.765L229.897 145.955L228.226 142.556L226.555 145.955L224.049 144.425L226.054 141.367L222.378 141.536V138.648Z" fill="#F27E00"/>
<path d="M224.049 144.426L226.555 145.955L228.226 142.726L229.896 145.955L232.403 144.426L230.565 141.367L234.073 141.537V138.648L230.565 138.818L232.403 135.589L229.896 134.06L228.226 137.458L226.555 134.06L224.049 135.589L225.887 138.818L222.378 138.648V141.537L225.887 141.367L224.049 144.426Z" fill="#007020"/>
<path d="M191.634 190.988C191.801 190.988 191.801 190.988 191.968 190.988C192.135 190.988 192.135 190.988 192.303 190.988C200.656 190.818 207.34 183.851 207.34 175.354C207.34 166.687 200.489 159.72 191.968 159.72C183.447 159.72 176.597 166.687 176.597 175.354C176.764 184.021 183.28 190.818 191.634 190.988ZM191.801 170.596L195.477 170.766L193.472 167.537L195.978 166.008L197.649 169.406L199.32 166.008L201.826 167.537L199.821 170.766L203.497 170.596V173.655L199.821 173.485L201.826 176.713L199.32 178.243L197.649 174.844L195.978 178.243L193.472 176.713L195.477 173.655L191.801 173.825V170.596Z" fill="#F27E00"/>
<path d="M193.472 176.541L195.978 177.9L197.816 174.672L199.32 177.9L201.993 176.541L199.988 173.312L203.664 173.482V170.593L199.988 170.763L201.993 167.534L199.32 166.175L197.649 169.404L195.978 166.175L193.472 167.534L195.477 170.763L191.801 170.593V173.482H195.477L193.472 176.541Z" fill="#007020"/>
<path d="M222.378 204.924V202.375L226.054 202.545L224.049 199.316L226.555 197.787L228.226 201.186L229.897 197.787L232.403 199.316L230.398 202.545L234.074 202.375V204.924H237.415C237.415 204.754 237.415 204.584 237.415 204.584C236.079 197.277 229.897 191.669 222.378 191.669C215.528 191.669 209.847 196.087 207.843 202.375C208.01 203.225 208.344 204.074 208.344 204.924H222.378Z" fill="#F27E00"/>
<path d="M237.583 204.921H234.241V205.261L230.565 205.091L232.57 208.32L230.064 209.849L228.393 206.45L226.723 209.849L224.216 208.32L226.221 205.261L222.546 205.431V205.091H208.678C208.845 205.771 208.845 206.45 208.845 207.13C208.845 208.829 208.511 210.529 208.01 212.058C209.848 218.346 215.528 222.934 222.211 223.104C222.378 223.104 222.379 223.104 222.546 223.104C222.713 223.104 222.713 223.104 222.88 223.104C230.398 222.934 236.58 217.326 237.583 210.019C237.416 209.169 237.416 208.32 237.416 207.3C237.416 206.11 237.416 205.601 237.583 204.921Z" fill="#FCD73F"/>
<path d="M234.073 202.205L230.565 202.375L232.402 199.317L229.896 197.787L228.225 201.016L226.555 197.787L224.048 199.317L225.886 202.375L222.378 202.205V204.924H234.073V202.205Z" fill="#007020"/>
<path d="M225.886 205.093L224.048 208.151L226.554 209.68L228.225 206.282L229.896 209.68L232.402 208.151L230.564 204.923L234.073 205.262V204.923H222.377V205.262L225.886 205.093Z" fill="#007020"/>
<path d="M260.805 204.923H262.643L260.638 204.753L260.805 204.923Z" fill="#F27E00"/>
<path d="M255.125 204.923H256.126V204.753L255.125 204.923Z" fill="#F27E00"/>
<path d="M252.453 204.924V202.035L256.128 202.205L254.123 198.976L256.63 197.447L258.3 200.845L259.971 197.447L262.477 198.976L260.472 202.205L264.148 202.035V204.924H267.657C266.654 197.277 260.305 191.329 252.453 191.329C244.767 191.329 238.418 197.107 237.416 204.414C237.416 204.584 237.416 204.754 237.416 204.754H252.453V204.924Z" fill="#F27E00"/>
<path d="M264.312 204.923L262.809 204.753H260.804L262.642 207.812L260.135 209.341L258.465 205.943L256.794 209.341L254.288 207.812L256.293 204.753H255.29L252.784 204.923V204.753H237.914C238.081 205.433 238.081 206.283 238.081 207.132C238.081 207.982 238.081 208.832 237.914 209.511C239.084 216.649 245.265 222.257 252.617 222.426C252.784 222.426 252.784 222.426 252.951 222.426C253.118 222.426 253.118 222.426 253.285 222.426C261.639 222.257 268.322 215.289 268.322 206.792C268.322 206.113 268.322 205.433 268.155 204.753L264.312 204.923Z" fill="#FCD73F"/>
<path d="M237.582 204.922C237.414 205.602 237.247 206.282 237.247 206.961C237.247 207.811 237.414 208.83 237.414 209.68C237.582 208.83 237.582 208.151 237.582 207.301C237.749 206.452 237.749 205.602 237.582 204.922Z" fill="#FCD73F"/>
<path d="M256.128 204.754V204.924H260.806L260.639 204.754L262.644 204.924H264.315V202.035L260.639 202.205L262.644 198.976L259.971 197.447L258.467 200.846L256.796 197.447L254.123 198.976L256.128 202.205L252.452 202.035V204.924H255.126L256.128 204.754Z" fill="#007020"/>
<path d="M254.124 207.809L256.797 209.338L258.468 206.11L259.971 209.338L262.645 207.809L260.807 204.921H256.128L254.124 207.809Z" fill="#007020"/>
<path d="M201.325 204.923H203.33L201.325 204.753V204.923Z" fill="#F27E00"/>
<path d="M195.647 204.923H196.816V204.754L195.647 204.923Z" fill="#F27E00"/>
<path d="M193.141 202.035L196.817 202.205L194.812 198.976L197.318 197.447L198.989 200.846L200.659 197.447L203.165 198.976L201.161 202.205L204.836 202.035V204.924H207.342C207.51 204.074 207.677 203.225 208.011 202.375C206.006 196.088 200.325 191.329 193.308 191.329C185.455 191.329 179.106 197.277 178.104 204.924H193.141V202.035Z" fill="#F27E00"/>
<path d="M192.972 222.426C193.139 222.426 193.139 222.426 193.306 222.426C193.473 222.426 193.473 222.426 193.64 222.426C200.323 222.256 205.837 217.838 207.842 211.72C207.341 210.191 207.173 208.662 207.173 207.132C207.173 206.283 207.173 205.603 207.341 204.753H204.834V204.923L203.331 204.753H201.326L203.164 207.812L200.657 209.341L198.987 205.943L197.316 209.341L194.81 207.812L196.815 204.753H195.812L193.306 204.923V204.753H178.269C178.102 205.433 178.102 206.113 178.102 206.792C177.935 215.289 184.618 222.256 192.972 222.426Z" fill="#FCD73F"/>
<path d="M208.51 204.922C208.343 204.073 208.176 203.223 208.009 202.374C207.675 203.223 207.508 204.073 207.341 204.922H208.51Z" fill="#F27E00"/>
<path d="M208.51 204.923H207.34C207.173 205.602 207.173 206.452 207.173 207.301C207.173 208.83 207.34 210.36 207.842 211.889C208.343 210.36 208.677 208.661 208.677 206.961C208.677 206.112 208.51 205.602 208.51 204.923Z" fill="#FCD73F"/>
<path d="M201.327 202.204L203.332 198.975L200.658 197.446L198.988 200.844L197.317 197.446L194.811 198.975L196.816 202.204L193.14 202.034V204.923H195.646L196.816 204.753V204.923H201.327V204.753L203.332 204.923H205.002V202.034L201.327 202.204Z" fill="#007020"/>
<path d="M194.81 207.813L197.316 209.342L198.987 206.114L200.658 209.342L203.164 207.813L201.326 204.924H196.815L194.81 207.813Z" fill="#007020"/>
<path d="M151.37 67.2749H-15.3735L-15.3735 135.079H151.37V67.2749Z" fill="#F27E00"/>
<path d="M144.854 -29.0791V25.9797V67.2738H316.276V-29.0791H144.854Z" fill="#DC000F"/>
<path d="M104.42 67.2747L128.313 43.6538C134.829 37.1963 143.684 33.6277 152.873 33.6277L287.204 33.6277V67.2747H104.42Z" fill="#061054"/>
<path d="M22.0505 60.1382C20.8809 56.0598 20.3797 51.8114 20.3797 47.563C20.3797 36.3473 24.2225 26.1512 30.5715 17.9944C20.0455 26.6611 13.1953 39.916 13.1953 54.8702C13.1953 59.2885 13.8636 63.5369 14.8661 67.4454V67.6153L22.0505 60.3081V60.1382Z" fill="#F27E00"/>
<path d="M66.6612 94.6344C47.9484 94.6344 31.9089 83.4187 24.5575 67.275C23.555 65.0658 22.7196 62.6867 22.0513 60.1377L14.8669 67.4449C20.3805 87.3272 38.2579 101.772 59.4768 101.772C74.1797 101.772 87.2118 94.8044 95.7328 83.9285C87.8801 90.7259 77.6883 94.6344 66.6612 94.6344Z" fill="#FCD73F"/>
<path d="M105.925 54.7018C105.925 28.7018 85.207 7.45996 59.477 7.45996C48.4498 7.45996 38.4251 11.3685 30.4054 17.826C24.0564 25.9828 20.2136 36.1789 20.2136 47.3946C20.2136 51.6429 20.8819 55.8913 21.8844 59.9697L105.591 59.9697C105.925 58.2704 105.925 56.571 105.925 54.7018Z" fill="#00963D"/>
<path d="M21.8823 59.9697C22.5506 62.6887 23.5531 65.0678 24.5556 67.4469C31.907 83.5906 47.9465 94.8063 66.6593 94.8063C77.6865 94.8063 87.8782 90.8978 95.7309 84.2704C99.5737 79.3423 102.414 73.7344 104.252 67.4469C104.92 65.0678 105.421 62.5187 105.589 59.9697L21.8823 59.9697Z" fill="white"/>
<path d="M346.687 115.024C385.627 115.024 417.194 82.9172 417.194 43.3115C417.194 3.70586 385.627 -28.4009 346.687 -28.4009C307.747 -28.4009 276.18 3.70586 276.18 43.3115C276.18 82.9172 307.747 115.024 346.687 115.024Z" fill="#1F52F5"/>
<path d="M362.557 98.7114C350.694 98.7114 339.5 95.6526 329.642 90.3846C307.254 78.3193 292.05 54.5284 292.05 26.999C292.05 11.365 297.062 -3.07943 305.416 -14.9749C287.706 -1.88988 276.177 19.182 276.177 43.1428C276.177 70.6722 291.382 94.4631 313.77 106.528C323.628 111.796 334.822 114.855 346.684 114.855C370.242 114.855 390.96 103.13 403.825 85.1167C392.297 93.6134 378.095 98.7114 362.557 98.7114Z" fill="white"/>
<path d="M362.557 98.7114C350.694 98.7114 339.5 95.6526 329.642 90.3846C307.254 78.3193 292.05 54.5284 292.05 26.999C292.05 11.365 297.062 -3.07943 305.416 -14.9749C287.706 -1.88988 276.177 19.182 276.177 43.1428C276.177 70.6722 291.382 94.4631 313.77 106.528C323.628 111.796 334.822 114.855 346.684 114.855C370.242 114.855 390.96 103.13 403.825 85.1167C392.297 93.6134 378.095 98.7114 362.557 98.7114Z" fill="#F27E00"/>
<path d="M345.014 73.391C345.014 76.2798 342.675 78.489 340.002 78.489C337.162 78.489 334.99 76.1099 334.99 73.391C334.99 68.6328 340.002 62.3452 340.002 62.3452C340.002 62.3452 345.014 68.123 345.014 73.391Z" fill="white"/>
<path d="M326.47 47.0499C326.47 49.9388 324.131 52.1479 321.458 52.1479C318.617 52.1479 316.445 49.7689 316.445 47.0499C316.445 42.2917 321.458 36.0042 321.458 36.0042C321.458 36.0042 326.47 41.7819 326.47 47.0499Z" fill="white"/>
<path d="M345.015 25.4686C345.015 28.3575 342.676 30.5666 340.002 30.5666C337.162 30.5666 334.99 28.1875 334.99 25.4686C334.99 20.7104 340.002 14.4229 340.002 14.4229C340.002 14.4229 345.015 20.2006 345.015 25.4686Z" fill="white"/>
<path d="M326.467 0.828222C326.467 3.71711 324.128 5.92626 321.455 5.92626C318.615 5.92626 316.443 3.54718 316.443 0.828222C316.443 -3.92995 321.455 -10.2175 321.455 -10.2175C321.455 -10.2175 326.467 -4.43975 326.467 0.828222Z" fill="white"/>
<path d="M382.604 73.3942C382.604 76.2831 380.265 78.4922 377.592 78.4922C374.751 78.4922 372.579 76.1131 372.579 73.3942C372.579 68.636 377.592 62.3484 377.592 62.3484C377.592 62.3484 382.604 68.1262 382.604 73.3942Z" fill="white"/>
<path d="M364.227 47.0533C364.227 49.9422 361.888 52.1514 359.215 52.1514C356.374 52.1514 354.202 49.7723 354.202 47.0533C354.202 42.2951 359.215 36.0076 359.215 36.0076C359.215 36.0076 364.227 41.7853 364.227 47.0533Z" fill="white"/>
<path d="M382.603 25.4735C382.603 28.3624 380.264 30.5715 377.591 30.5715C374.751 30.5715 372.579 28.1924 372.579 25.4735C372.579 20.7153 377.591 14.4277 377.591 14.4277C377.591 14.4277 382.603 20.2055 382.603 25.4735Z" fill="white"/>
<path d="M364.227 0.831635C364.227 3.72052 361.887 5.92967 359.214 5.92967C356.374 5.92967 354.202 3.55059 354.202 0.831635C354.202 -3.92653 359.214 -10.2141 359.214 -10.2141C359.214 -10.2141 364.227 -4.43634 364.227 0.831635Z" fill="white"/>
<path d="M46.7778 32.4401C47.7803 32.4401 48.6157 31.7603 48.6157 30.7407L48.9499 27.342L50.2865 27.512C48.2815 35.329 47.2791 48.244 59.4758 55.8911C72.1737 63.878 84.8717 54.1917 91.5548 47.5643L92.3902 48.0741C90.5523 55.0414 85.7071 61.1591 78.5227 64.2179C66.9943 69.146 52.9597 63.878 47.4462 52.4924C44.2717 46.2048 44.2717 38.7277 46.7778 32.4401Z" fill="#FCD73F"/>
<path d="M59.4763 55.8891C47.2796 48.242 48.282 35.1571 50.287 27.3401H50.7882L50.454 32.4381H50.6211C51.1224 34.9871 51.9578 37.3662 53.2944 39.7453C59.3092 50.1113 71.84 54.6996 83.0343 50.2813C85.5404 49.2617 87.7125 47.9022 89.7174 46.2028L91.5553 47.5623C85.0392 54.1898 72.1742 63.876 59.4763 55.8891Z" fill="#F27E00"/>
<path d="M44.4387 30.9066C45.4411 31.4164 46.6107 30.9066 47.1119 30.0569L48.9498 26.6582L50.2864 27.5079C44.6058 34.8151 37.7556 47.9 46.9448 61.4948C56.6354 75.7693 74.3456 71.5209 84.0362 67.7824L84.7045 68.802C79.6922 75.2595 71.8395 79.3379 62.9843 79.168C48.7827 78.998 36.4189 66.9327 35.7506 52.4883C35.5835 43.8216 38.9251 36.1745 44.4387 30.9066Z" fill="#FCD73F"/>
<path d="M47.2781 61.3273C38.0888 47.7325 44.939 34.4776 50.6197 27.3403L51.1209 27.6802L48.4476 32.7782H48.6147C48.1135 35.6671 47.9464 38.556 48.1135 41.6148C49.6172 55.2096 60.8114 65.9155 74.1777 66.4253C77.1851 66.5952 80.1925 66.2554 83.0328 65.4057L84.3695 67.6149C74.5118 71.3534 56.8016 75.4319 47.2781 61.3273Z" fill="#F27E00"/>
<path d="M431.857 63.5923L288.633 204.426H431.857V63.5923Z" fill="#DC000F"/>
<path d="M351.533 114.516C349.361 116.725 350.865 118.934 350.03 121.143L364.231 135.588C364.899 133.378 363.563 130.999 365.735 128.96C365.902 128.79 366.069 128.62 366.403 128.45L352.202 114.006C351.867 114.176 351.7 114.346 351.533 114.516Z" fill="#FCD73F"/>
<path d="M340.84 125.392C338.668 127.601 340.338 130.15 339.169 132.529L353.37 146.974C354.373 144.595 352.702 142.216 355.041 139.837C355.208 139.667 355.208 139.667 355.375 139.497L341.174 125.052C341.007 125.222 340.84 125.392 340.84 125.392Z" fill="#FCD73F"/>
<path d="M360.889 109.926L375.091 124.37C375.592 122.331 374.423 120.122 376.427 118.082L362.226 103.638C360.221 105.677 361.223 107.886 360.889 109.926Z" fill="#FCD73F"/>
<path d="M329.978 136.266L344.18 150.71L329.978 136.266C330.145 136.266 329.978 136.266 329.978 136.266Z" fill="#007020"/>
<path d="M338.33 133.716C335.657 136.435 332.816 133.546 330.143 136.265L344.345 150.709C347.018 147.99 349.858 150.879 352.532 148.16C353.033 147.651 353.2 147.311 353.367 146.801L339.165 132.356C338.998 132.866 338.664 133.376 338.33 133.716Z" fill="#007020"/>
<path d="M349.026 122.84C346.52 125.389 343.68 122.84 341.173 125.049L355.375 139.494C358.048 137.284 360.721 139.833 363.228 137.284C363.729 136.775 364.063 136.095 364.23 135.585L350.028 121.141C349.861 121.82 349.527 122.33 349.026 122.84Z" fill="#007020"/>
<path d="M359.719 111.963C357.213 114.512 354.54 112.132 352.034 114.002L366.235 128.446C368.741 126.577 371.415 128.956 373.921 126.407C374.589 125.727 374.923 125.048 375.09 124.368L360.889 109.923C360.722 110.603 360.388 111.283 359.719 111.963Z" fill="#007020"/>
<path d="M383.61 81.8868C381.438 84.0959 382.942 86.3051 382.107 88.5142L396.308 102.959C396.977 100.75 395.64 98.3704 397.812 96.3312C397.979 96.1613 398.146 95.9913 398.48 95.8214L384.279 81.377C383.945 81.5469 383.777 81.7168 383.61 81.8868Z" fill="#FCD73F"/>
<path d="M372.918 92.7615C370.746 94.9706 372.417 97.5197 371.247 99.8988L385.449 114.343C386.451 111.964 384.781 109.585 387.12 107.206C387.287 107.036 387.287 107.036 387.454 106.866L373.252 92.4216C373.085 92.5916 372.918 92.5916 372.918 92.7615Z" fill="#FCD73F"/>
<path d="M392.965 77.2995L407.166 91.744C407.667 89.7048 406.498 87.4956 408.503 85.4564L394.301 71.012C392.296 73.0512 393.299 75.0904 392.965 77.2995Z" fill="#FCD73F"/>
<path d="M362.224 103.639L376.425 118.083L362.224 103.639Z" fill="#007020"/>
<path d="M370.41 101.091C367.737 103.81 364.896 100.921 362.223 103.64L376.425 118.084C379.098 115.365 381.938 118.254 384.611 115.535C385.113 115.025 385.28 114.685 385.447 114.176L371.245 99.7312C371.078 100.241 370.744 100.751 370.41 101.091Z" fill="#007020"/>
<path d="M381.103 90.215C378.597 92.764 375.756 90.215 373.25 92.4241L387.452 106.869C390.125 104.659 392.798 107.208 395.304 104.659C395.806 104.15 396.14 103.47 396.307 102.96L382.105 88.5156C381.938 89.1954 381.604 89.7052 381.103 90.215Z" fill="#007020"/>
<path d="M391.796 79.3354C389.29 81.8844 386.617 79.5053 384.11 81.3746L398.312 95.819C400.818 93.9498 403.492 96.3289 405.998 93.7798C406.666 93.1001 407 92.4203 407.167 91.7406L392.966 77.2961C392.799 77.9759 392.464 78.6556 391.796 79.3354Z" fill="#007020"/>
<path d="M404.997 60.135C402.825 62.3442 404.496 64.8932 403.326 67.2723L417.528 81.7168C418.53 79.3377 416.86 76.9586 419.199 74.5795C419.366 74.4096 419.366 74.4096 419.533 74.2396L405.331 59.7952C405.164 59.9651 404.997 59.9651 404.997 60.135Z" fill="#FCD73F"/>
<path d="M394.302 71.0129L408.504 85.4574L394.302 71.0129Z" fill="#007020"/>
<path d="M402.49 68.4647C399.816 71.1837 396.976 68.2948 394.303 71.0137L408.504 85.4582C411.178 82.7393 414.018 85.6281 416.691 82.9092C417.193 82.3994 417.36 82.0595 417.527 81.5497L403.325 67.1052C403.158 67.615 402.824 68.1248 402.49 68.4647Z" fill="#007020"/>
<path d="M413.182 57.5892C410.676 60.1383 407.835 57.5892 405.329 59.7984L419.531 74.2428C422.204 72.0337 424.877 74.5827 427.383 72.0337C427.885 71.5239 428.219 70.8441 428.386 70.3343L414.184 55.8899C414.017 56.5696 413.683 57.0794 413.182 57.5892Z" fill="#007020"/>
<path d="M319.452 147.314C317.28 149.523 318.784 151.732 317.949 153.941L332.15 168.386C332.819 166.177 331.482 163.798 333.654 161.758C333.821 161.589 333.988 161.419 334.322 161.249L320.121 146.804C319.787 146.974 319.62 147.144 319.452 147.314Z" fill="#FCD73F"/>
<path d="M308.595 158.189C306.423 160.398 308.093 162.947 306.924 165.326L321.125 179.771C322.128 177.392 320.457 175.013 322.796 172.633C322.963 172.464 322.963 172.464 323.13 172.294L308.929 157.849C308.929 158.019 308.762 158.189 308.595 158.189Z" fill="#FCD73F"/>
<path d="M297.977 168.654C295.805 170.863 297.476 173.412 296.306 175.791L310.508 190.235C311.51 187.856 309.84 185.477 312.179 183.098C312.346 182.928 312.346 182.928 312.513 182.758L298.311 168.314C298.311 168.484 298.144 168.654 297.977 168.654Z" fill="#FCD73F"/>
<path d="M287.324 179.486C285.152 181.695 286.823 184.244 285.653 186.623L299.855 201.068C300.857 198.689 299.187 196.309 301.526 193.93C301.693 193.76 301.693 193.76 301.86 193.59L287.658 179.146C287.658 179.316 287.491 179.486 287.324 179.486Z" fill="#FCD73F"/>
<path d="M276.672 190.32C274.499 192.529 276.17 195.078 275.001 197.457L289.202 211.902C290.205 209.523 288.534 207.144 290.873 204.765C291.04 204.595 291.04 204.595 291.207 204.425L277.006 189.98C277.006 190.15 276.839 190.32 276.672 190.32Z" fill="#FCD73F"/>
<path d="M328.81 142.725L343.011 157.169C343.513 155.13 342.343 152.921 344.348 150.882L330.146 136.437C328.142 138.476 329.144 140.686 328.81 142.725Z" fill="#FCD73F"/>
<path d="M297.9 169.064L312.101 183.509L297.9 169.064Z" fill="#007020"/>
<path d="M306.253 166.514C303.58 169.233 300.739 166.344 298.066 169.063L312.268 183.508C314.941 180.789 317.781 183.678 320.455 180.959C320.956 180.449 321.123 180.109 321.29 179.599L307.088 165.155C306.921 165.665 306.587 166.174 306.253 166.514Z" fill="#007020"/>
<path d="M295.636 176.981C292.963 179.7 290.122 176.811 287.449 179.53L301.651 193.975C304.324 191.256 307.164 194.145 309.838 191.426C310.339 190.916 310.506 190.576 310.673 190.066L296.471 175.622C296.304 176.132 295.97 176.641 295.636 176.981Z" fill="#007020"/>
<path d="M284.983 187.813C282.31 190.532 279.469 187.643 276.796 190.362L290.998 204.807C293.671 202.088 296.511 204.977 299.185 202.258C299.686 201.748 299.853 201.408 300.02 200.898L285.818 186.454C285.651 186.964 285.317 187.473 284.983 187.813Z" fill="#007020"/>
<path d="M316.946 155.639C314.44 158.188 311.6 155.639 309.094 157.848L323.295 172.292C325.968 170.083 328.642 172.632 331.148 170.083C331.649 169.573 331.983 168.893 332.15 168.384L317.949 153.939C317.782 154.619 317.447 155.129 316.946 155.639Z" fill="#007020"/>
<path d="M327.64 144.761C325.134 147.31 322.46 144.931 319.954 146.8L334.156 161.245C336.662 159.376 339.335 161.755 341.841 159.206C342.51 158.526 342.844 157.846 343.011 157.166L328.809 142.722C328.642 143.402 328.308 144.081 327.64 144.761Z" fill="#007020"/>
<path d="M277.979 204.426V262.203H293.262V204.426H277.979Z" fill="#1F52F5"/>
<path d="M409.365 204.427H287.447V265.816H409.365V204.427Z" fill="#061054"/>
<path d="M295.893 119.446C296.395 120.975 296.729 122.844 296.729 125.054C296.729 138.818 278.851 161.25 272.168 161.25C271.333 161.25 270.163 160.57 268.827 159.55C272.837 163.969 276.512 166.858 278.183 166.858C284.866 166.858 302.744 144.596 302.744 130.661C302.911 124.034 300.237 120.975 295.893 119.446Z" fill="#9E0040"/>
<path d="M296.897 125.051C296.897 122.842 296.563 120.972 296.061 119.443C294.558 118.933 292.72 118.593 290.715 118.423H290.548H278.351H265.152C258.135 119.103 253.624 121.652 253.624 130.659C253.624 139.495 261.81 151.73 268.828 159.547C270.331 160.567 271.501 161.247 272.169 161.247C279.019 161.247 296.897 138.985 296.897 125.051Z" fill="#DC000F"/>
<path d="M265.651 136.269C268.973 136.269 271.666 133.53 271.666 130.151C271.666 126.773 268.973 124.034 265.651 124.034C262.329 124.034 259.636 126.773 259.636 130.151C259.636 133.53 262.329 136.269 265.651 136.269Z" fill="white"/>
<path d="M292.718 103.815L283.195 109.762L284.03 99.2264L278.35 97.8669V118.599H290.546H290.713L299.736 114.011C296.895 110.952 294.556 107.553 292.718 103.815Z" fill="#007020"/>
<path d="M272 99.2233L272.669 109.759L263.479 103.981C261.642 107.72 259.302 111.119 256.629 114.008V114.178L265.15 118.596H278.349V97.8638L272 99.2233Z" fill="#00963D"/>
<path d="M131.822 194.725H-15.374L-15.374 299.915H131.822L131.822 194.725Z" fill="#1F52F5"/>
<path d="M159.556 203.222C158.888 203.222 158.22 203.052 157.552 202.712C155.881 201.863 155.045 199.993 155.379 198.124L155.547 197.444C155.547 197.274 155.547 197.274 155.547 197.105C155.547 196.935 155.714 196.595 155.714 196.595C155.881 195.915 156.048 195.405 156.382 194.895C156.716 194.386 157.05 193.876 157.384 193.536C173.424 167.196 180.775 127.091 182.613 115.706L178.102 113.497C177.267 112.987 176.598 112.647 176.097 112.137C174.593 110.438 174.593 107.889 176.097 106.19C176.933 105.34 177.935 105 179.105 105C179.94 105 180.942 105.34 181.611 105.85L187.124 108.399L206.004 99.5621C206.171 99.3921 206.171 99.2222 206.338 99.2222L212.52 93.4444C213.356 92.7647 214.358 92.2549 215.361 92.2549C215.862 92.2549 216.363 92.2549 216.864 92.5947C218.368 93.1046 219.37 94.464 219.538 96.1634C219.705 98.0327 220.54 109.078 213.356 134.059C205.837 160.569 189.463 175.523 187.626 177.052L162.564 202.033C161.728 202.712 160.726 203.222 159.556 203.222Z" fill="#061054"/>
<path d="M215.361 96.5019C215.528 97.3515 216.531 107.718 209.346 132.868C201.828 159.548 184.786 173.822 184.786 173.822L159.557 198.973L159.724 198.293C160.392 197.443 160.894 196.424 161.562 195.404C161.061 196.254 160.392 196.933 159.891 197.613V197.273C160.225 196.763 160.727 196.084 161.061 195.574C180.442 163.626 187.292 112.986 187.292 112.986L179.941 109.417C179.606 109.247 179.439 109.077 179.272 108.907C179.439 109.077 179.606 109.247 179.941 109.247L187.292 112.646L208.344 102.789C208.845 102.62 209.179 102.28 209.346 101.94L215.361 96.5019ZM215.361 88.0051C213.356 88.0051 211.184 88.8548 209.681 90.2143L203.666 95.9921L187.292 103.639L183.951 102.11C182.614 101.09 180.943 100.58 179.272 100.58C177.1 100.58 174.928 101.43 173.258 103.129C170.083 106.358 170.083 111.626 173.09 114.855C173.926 115.704 174.928 116.554 176.098 117.064C176.098 117.064 176.265 117.064 176.265 117.234L177.936 118.084C175.43 132.188 168.245 167.535 153.876 191.156C153.709 191.495 153.375 191.835 153.208 192.345C152.54 193.365 152.039 194.554 151.704 195.744V196.084C151.704 196.254 151.704 196.254 151.704 196.423C151.704 196.593 151.704 196.593 151.704 196.763L151.537 197.443C150.869 201.012 152.54 204.75 155.714 206.45C156.884 207.129 158.388 207.469 159.724 207.469C161.896 207.469 163.901 206.62 165.572 205.09L190.634 180.11C193.14 177.901 209.848 162.267 217.533 135.247C224.885 109.417 224.049 97.6914 223.882 95.6522C223.548 92.4234 221.376 89.7045 218.536 88.6849C217.199 88.1751 216.364 88.0051 215.361 88.0051Z" fill="#061054"/>
<path d="M30.0699 157.169C36.9201 157.169 42.0995 154.79 46.6106 151.391L73.009 128.959H-11.3655L-40.27 157.509C-40.1029 157.339 -39.7688 157.339 -39.4346 157.339H30.0699V157.169Z" fill="#061054" stroke="#061054" stroke-width="5" stroke-miterlimit="10" stroke-linejoin="round"/>
<path d="M130.821 227.692L151.706 290.737L169.082 274.254L147.696 212.397L130.821 227.692Z" fill="#007020" stroke="#007020" stroke-width="5" stroke-miterlimit="10" stroke-linejoin="round"/>
<path d="M110.604 100.92C109.435 100.92 108.432 100.41 107.597 99.5605C106.093 97.8611 106.093 95.3121 107.764 93.7827L128.482 72.201C130.486 69.652 145.189 51.469 173.927 51.469C196.649 51.469 209.682 65.7435 213.691 71.1814L235.077 70.8415C236.247 70.8415 237.249 71.3513 238.085 72.0311C238.92 72.8808 239.254 73.9004 239.254 75.0899V76.1095C239.254 77.2991 238.753 78.3187 238.085 78.9984L229.23 88.1749C229.063 88.3448 228.896 88.6847 228.728 88.8546L222.547 94.6324C221.711 95.3121 220.709 95.8219 219.706 95.8219C218.871 95.8219 218.035 95.652 217.367 95.1422C216.866 94.8023 216.365 94.2925 216.198 93.7827H195.48C193.976 93.7827 192.472 92.933 191.804 91.4036C189.131 86.1357 178.271 75.2598 161.229 75.2598C151.204 75.2598 142.182 77.9788 134.329 83.2468C134.329 83.2468 125.808 89.1945 113.277 99.7304C112.442 100.58 111.44 100.92 110.604 100.92Z" fill="#007020"/>
<path d="M173.76 55.7179C199.155 55.7179 211.352 75.4303 211.352 75.4303L234.91 75.0904V76.1101L225.554 85.7963L219.372 91.5741C219.706 90.7244 219.038 89.5349 217.868 89.5349H195.146C191.637 82.5676 179.106 71.012 160.895 71.012C150.034 71.012 140.344 73.9009 131.823 79.6787C131.823 79.6787 123.302 85.6264 110.437 96.5022L131.322 74.7506C131.489 74.9205 145.356 55.7179 173.76 55.7179ZM173.76 47.2212C144.02 47.2212 127.98 65.744 125.14 69.4826L104.589 90.7244C101.415 93.9532 101.415 99.0512 104.422 102.45C106.093 104.319 108.265 105.169 110.604 105.169C112.442 105.169 114.447 104.489 115.951 103.3C127.98 93.2734 136.167 87.4957 136.668 86.9859C143.853 82.0578 151.872 79.6787 161.062 79.6787C175.932 79.6787 185.789 89.195 187.794 93.6133C189.298 96.5022 192.138 98.2015 195.313 98.2015H214.193C214.36 98.3715 214.694 98.5414 215.028 98.8813C216.365 99.9009 218.035 100.241 219.706 100.241C221.711 100.241 223.883 99.3911 225.387 98.0316L231.569 92.2538C231.903 91.914 232.237 91.5741 232.571 91.2342L241.259 82.2277C242.763 80.6983 243.598 78.4891 243.598 76.28V75.2604C243.598 73.0512 242.763 70.8421 241.092 69.1427C239.588 67.6133 237.416 66.7637 235.244 66.7637C235.244 66.7637 235.244 66.7637 235.077 66.7637L215.696 66.9336C209.848 60.1362 196.148 47.2212 173.76 47.2212Z" fill="#007020"/>
<path d="M45.4424 162.605C55.6342 150.03 65.993 138.814 75.6835 128.958H75.5165C65.6589 138.814 55.4671 150.03 45.4424 162.605Z" fill="#061054"/>
<path d="M155.046 106.527C155.213 106.697 155.213 106.867 155.38 107.037C155.547 107.377 155.714 107.547 155.881 107.887C156.215 108.396 156.717 108.906 157.218 109.416C159.223 111.795 162.23 112.985 165.238 112.815C168.078 112.815 171.085 111.625 173.257 109.416C175.597 107.037 176.599 104.148 176.432 101.259C176.432 99.3898 175.931 97.6905 175.095 95.9911C175.931 97.6905 176.432 99.3898 176.432 101.259C176.432 104.148 175.262 107.037 173.257 109.416C171.085 111.625 168.078 112.815 165.238 112.815C162.397 112.815 159.557 111.625 157.218 109.416C156.717 108.906 156.383 108.396 155.881 107.887C155.714 107.547 155.547 107.377 155.38 107.037C155.213 106.867 155.046 106.697 155.046 106.527C153.041 102.279 153.876 97.3506 156.884 93.6121C153.375 97.3506 152.874 102.449 155.046 106.527Z" fill="#061054"/>
<path d="M118.121 203.222C117.954 203.222 117.954 203.392 117.787 203.392H133.158C139.507 203.392 145.188 202.203 150.367 200.504C145.188 202.203 139.507 203.222 132.991 203.222H118.121Z" fill="#061054"/>
<path d="M151.37 286.319L152.205 285.47L130.819 227.692L151.37 286.319Z" fill="#061054"/>
<path d="M130.484 227.862L152.038 205.941C133.659 218.686 112.273 220.895 101.747 220.895L124.637 286.32L133.993 277.313L117.787 230.751C122.799 229.562 127.143 228.882 130.484 227.862Z" fill="#061054"/>
<path d="M85.8757 213.248C95.5663 209.17 97.9054 207.98 105.257 203.392H117.788C117.955 203.392 117.955 203.222 118.122 203.222H105.09C126.309 189.288 137.67 166.516 142.181 154.961C142.181 154.451 142.181 153.771 141.68 153.261C140.009 156.15 138.84 158.529 137.169 160.739C119.458 188.608 91.5564 208.32 47.1136 208.32H-15.0395C-15.5408 208.32 -15.8749 208.15 -16.042 207.98C-14.7054 209.51 -11.1967 212.059 -7.01976 213.588C2.33662 216.987 18.3761 220.556 40.4305 220.556C62.986 220.556 85.0404 213.588 85.0404 213.588C85.0404 213.588 85.0404 213.588 85.2074 213.588C85.3745 213.418 85.7087 213.248 85.8757 213.248Z" fill="#DC000F"/>
<path d="M137.17 290.566C135.333 290.566 133.829 289.377 133.161 287.677L113.78 231.939C113.445 230.749 113.445 229.56 114.114 228.54C114.615 227.521 115.617 226.671 116.787 226.501C118.792 225.991 120.63 225.651 122.301 225.311C124.974 224.802 127.313 224.292 129.151 223.782H129.318C129.652 223.612 130.153 223.612 130.487 223.612C132.158 223.612 133.996 224.632 134.497 226.331L155.048 284.958C155.549 286.318 155.382 287.677 154.547 288.867C153.711 290.056 152.542 290.736 151.205 290.736H137.17V290.566Z" fill="#00963D"/>
<path d="M130.819 227.693L151.37 286.32H137.168L133.994 277.144L117.787 230.581C122.8 229.392 127.144 228.882 130.652 227.862L130.819 227.693ZM130.819 219.196C129.984 219.196 129.149 219.366 128.313 219.536C128.146 219.536 128.146 219.536 127.979 219.706C126.308 220.215 124.136 220.725 121.63 221.065C119.959 221.405 117.954 221.745 115.95 222.255C113.61 222.764 111.606 224.294 110.436 226.503C109.266 228.712 109.099 231.091 109.935 233.47L126.141 280.032L129.316 289.209C130.485 292.608 133.66 294.817 137.168 294.817H151.37C154.043 294.817 156.55 293.457 158.22 291.248C159.724 289.039 160.225 286.15 159.223 283.431L138.672 224.804C137.503 221.405 134.328 219.196 130.819 219.196Z" fill="#FCD73F"/>
<path d="M110.435 290.568C108.597 290.568 107.094 289.379 106.425 287.679L82.0319 218.856C74.6805 220.895 57.9726 224.803 40.4294 224.803C14.6994 224.803 -1.17305 220.385 -8.35741 217.666C-12.8685 215.967 -17.3796 213.078 -19.2175 210.699C-19.7187 210.019 -20.0529 209.339 -20.387 208.83C-20.387 208.66 -20.5541 208.49 -20.5541 208.32C-20.5541 208.15 -20.7212 207.81 -20.7212 207.3C-20.7212 207.13 -20.7212 207.13 -20.7212 206.96C-20.7212 206.79 -20.7212 206.79 -20.7212 206.62C-20.7212 205.261 -20.0529 203.901 -19.2175 202.882L-9.02573 192.516C-29.2422 189.117 -40.6035 174.843 -44.7805 161.248C-44.9475 160.908 -44.9475 160.398 -44.9475 160.058C-44.9475 159.888 -44.9475 159.888 -44.9475 159.718C-44.9475 158.699 -45.1146 157.169 -44.2792 155.47C-44.2792 155.3 -44.1122 155.13 -43.9451 154.96C-43.6109 154.45 -43.2768 154.111 -42.7755 153.771C-41.9401 153.091 -40.7706 152.751 -39.601 152.751H29.9035C35.0829 152.751 39.4269 151.222 43.771 147.823L70.1693 125.392L88.5479 110.098C92.0566 106.869 95.5652 103.64 98.7397 100.751C101.58 98.2021 104.587 95.6531 107.762 93.1041C120.627 82.2282 129.148 76.2805 129.482 76.1106C138.671 69.823 149.364 66.5942 161.06 66.5942C179.271 66.5942 192.471 77.1302 197.65 85.1171H218.034C219.871 85.1171 221.709 85.9668 222.712 87.6661C223.714 89.1955 224.048 91.2348 223.38 92.9341C222.879 94.4635 221.709 95.6531 220.039 96.3328L201.159 105.169C199.655 115.705 192.471 158.529 174.927 187.248C174.593 187.928 173.925 188.777 173.257 189.797C170.082 194.385 166.573 198.633 162.397 202.542C159.89 204.921 157.05 207.13 154.21 209.169C137.502 220.895 118.455 223.954 107.428 224.634L128.313 284.62C128.814 285.98 128.647 287.339 127.811 288.529C126.976 289.718 125.806 290.398 124.47 290.398H110.435V290.568Z" fill="#00963D"/>
<path d="M161.061 71.1815C179.273 71.1815 191.803 82.7371 195.312 89.7044H218.035C219.204 89.7044 219.873 90.894 219.538 91.7436C219.371 92.0835 219.037 92.4234 218.536 92.5933L197.484 102.45C197.484 102.45 190.968 153.26 171.587 185.208C171.253 185.717 170.585 186.737 170.083 187.587C167.076 192.175 163.567 196.083 159.892 199.482C157.385 201.861 154.879 203.9 152.206 205.77C133.827 218.515 112.441 220.724 101.915 220.724L124.638 286.319H110.436L84.7063 213.757C84.7063 213.757 62.9862 220.554 40.4306 220.554C18.3763 220.554 2.33679 217.155 -7.01959 213.587C-11.1965 212.057 -14.8723 209.508 -16.0418 207.979C-16.2089 207.639 -16.376 207.469 -16.543 207.299C-16.543 207.129 -16.543 207.129 -16.543 206.959C-16.543 206.619 -16.376 206.28 -16.2089 205.94L0.331848 189.116C-22.3908 189.116 -36.0912 175.182 -40.7694 160.057C-40.7694 159.208 -40.9365 158.188 -40.6023 157.678L-40.4352 157.508C-40.2682 157.338 -39.934 157.338 -39.5998 157.338H29.9047C36.7549 157.338 41.9343 154.959 46.4454 151.561L73.0109 128.959L91.3895 113.665C94.8981 110.436 98.4067 107.208 101.581 104.319C104.756 101.6 107.763 99.0508 110.436 96.6717C123.301 85.7959 131.822 79.8482 131.822 79.8482C140.51 74.0704 150.201 71.1815 161.061 71.1815ZM161.061 62.6848C148.53 62.6848 137.169 66.0835 127.311 72.8809C126.977 73.0508 118.289 79.1685 105.257 90.0443C102.25 92.5933 99.2421 95.3123 96.2347 97.8613C93.0602 100.75 89.5516 103.809 86.043 107.208L67.8314 122.332L41.4331 144.763C37.7574 147.482 34.2487 148.672 30.0718 148.672H-39.5998C-41.6048 148.672 -43.4426 149.182 -45.1134 150.371C-45.9488 151.051 -46.7842 151.731 -47.4525 152.75C-47.6196 152.92 -47.7867 153.26 -47.9537 153.43C-49.4575 156.149 -49.2904 158.868 -49.2904 160.057V160.227C-49.2904 161.077 -49.1233 161.757 -48.9562 162.606C-44.9463 175.691 -34.9216 189.286 -17.5455 194.894L-22.3908 199.822C-24.0616 201.521 -25.064 203.9 -25.2311 206.45C-25.2311 206.619 -25.2311 206.789 -25.2311 206.789C-25.2311 206.959 -25.2311 207.129 -25.2311 207.299C-25.2311 208.149 -25.064 208.659 -24.897 209.168C-24.897 209.508 -24.7299 209.678 -24.5628 210.018C-24.2286 211.208 -23.5603 212.227 -22.7249 213.247C-20.2188 216.306 -15.2064 219.534 -10.027 221.574C-2.50848 224.293 13.8652 229.051 40.2635 229.051C55.6347 229.051 70.5047 226.162 79.1928 223.953L102.25 289.208C103.419 292.606 106.594 294.816 110.102 294.816H124.304C126.977 294.816 129.483 293.456 131.154 291.247C132.658 289.038 133.159 286.149 132.157 283.43L113.11 228.541C124.805 227.182 141.513 223.273 156.55 212.907C159.557 210.698 162.565 208.489 165.238 205.94C169.582 201.861 173.425 197.443 176.599 192.515C177.268 191.665 177.936 190.646 178.27 189.796C195.145 162.097 202.496 121.992 204.668 108.227L221.376 100.41C224.05 99.3907 225.887 97.1815 226.89 94.6325C228.059 91.5737 227.558 88.175 225.72 85.4561C223.882 82.7371 220.875 81.2077 217.534 81.2077H199.823C196.816 77.2992 192.806 73.5606 188.128 70.6717C180.108 65.4038 170.752 62.6848 161.061 62.6848Z" fill="#FCD73F"/>
<path d="M114.612 174.841C114.612 175.011 114.612 175.011 114.612 174.841C122.799 169.913 131.32 162.946 140.008 153.599C140.175 153.429 140.175 153.429 140.342 153.259C140.175 153.259 140.008 153.429 139.841 153.599C131.32 162.946 122.966 169.743 114.612 174.841Z" fill="white"/>
<path d="M169.415 91.5763C168.078 91.5763 166.741 92.256 165.739 93.2757C164.569 94.1253 164.068 95.6547 164.068 97.0142C164.068 98.3737 164.736 99.7332 165.739 100.753C166.574 101.942 168.078 102.452 169.415 102.452C170.751 102.452 172.088 101.772 173.09 100.753C174.761 98.5436 174.761 95.6547 173.09 93.2757C172.756 92.9358 172.422 92.5959 172.088 92.256C170.584 90.8966 168.746 90.2168 166.908 89.877C168.579 90.2168 170.083 90.8966 171.587 91.9162C170.918 91.5763 170.083 91.4064 169.415 91.5763Z" fill="white"/>
<path d="M47.1126 208.318C91.5554 208.318 119.457 188.605 137.168 160.736C138.839 158.357 140.008 156.148 141.679 153.259C141.178 153.259 140.843 153.259 140.342 153.429C140.175 153.599 140.175 153.599 140.008 153.769C131.32 163.115 122.799 169.912 114.612 175.011C107.929 179.089 101.58 181.978 95.2311 184.017C82.8674 188.265 71.1719 189.115 60.9801 189.115H27.8986C27.2303 189.115 26.7291 188.605 26.562 187.926C26.562 187.586 26.562 187.246 26.7291 186.736C26.8962 186.566 26.8962 186.396 27.0632 186.396V186.226C33.0781 177.899 39.0929 169.912 45.2748 162.605C55.4665 150.03 65.6583 138.814 75.3488 128.958C80.8624 123.18 86.376 117.912 91.5554 113.154L73.0097 128.958L46.4443 151.56C41.9332 154.958 36.7538 157.337 29.9036 157.337H-39.6009C-39.9351 157.337 -40.2693 157.507 -40.4363 157.507C-40.6034 157.507 -40.6034 157.677 -40.6034 157.677C-40.9376 158.357 -40.7705 159.377 -40.7705 160.056C-36.2594 175.18 -22.559 189.115 0.330742 189.115L-16.21 205.939C-16.3771 206.109 -16.5442 206.448 -16.5442 206.958C-16.5442 207.128 -16.5442 207.128 -16.5442 207.298C-16.5442 207.468 -16.3771 207.808 -16.0429 207.978C-15.8758 208.148 -15.5417 208.318 -15.0405 208.318H47.1126Z" fill="#007020"/>
<path d="M218.033 89.7046H195.311L189.63 96.6719C189.129 97.5216 189.129 98.0314 189.463 98.5412C189.63 98.7111 189.797 98.881 190.131 98.881L197.483 102.28L218.535 92.4235C219.036 92.2536 219.37 91.9137 219.537 91.5739C219.871 90.8941 219.37 89.7046 218.033 89.7046Z" fill="#00963D"/>
<path d="M170.25 189.626C169.582 190.476 168.746 191.496 167.744 192.345C163.567 196.764 157.719 200.502 150.368 203.051C145.188 204.921 139.34 205.94 133.159 205.94H117.787H105.256C97.905 210.528 95.5659 211.718 85.8754 215.796C85.7083 215.796 85.3742 215.966 85.2071 216.306C85.04 216.646 84.8729 217.326 85.2071 217.666L110.269 289.038H124.47L101.748 223.443C112.274 223.443 133.66 221.404 152.038 208.489C154.712 206.62 157.218 204.581 159.724 202.202C163.4 198.803 166.908 194.894 169.916 190.306C170.584 189.456 171.085 188.437 171.754 187.417C171.419 188.097 170.751 188.777 170.25 189.626Z" fill="#00963D"/>
<path d="M155.046 106.53C155.214 106.7 155.214 106.869 155.381 107.039C155.548 107.379 155.715 107.549 155.882 107.889C156.216 108.399 156.717 108.909 157.219 109.418C159.391 111.628 162.398 112.817 165.238 112.817C168.079 112.817 170.919 111.628 173.258 109.418C175.263 107.039 176.432 104.15 176.432 101.262C176.432 99.5623 175.931 97.693 175.096 95.9936C174.595 94.974 173.926 94.1244 173.258 93.2747C174.929 95.6538 174.929 98.3727 173.258 100.752C172.256 101.771 170.919 102.451 169.582 102.451C168.079 102.451 166.742 101.941 165.907 100.752C164.904 99.7322 164.236 98.3727 164.236 97.0132C164.236 95.4838 164.737 94.1244 165.907 93.2747C166.909 92.2551 168.246 91.5753 169.582 91.5753C170.251 91.5753 171.086 91.7453 171.754 91.9152C170.251 90.8956 168.747 90.2159 167.076 89.876C166.575 89.876 165.907 89.7061 165.405 89.7061C162.565 89.7061 159.558 90.8956 157.386 93.1047C157.218 93.2747 157.219 93.2747 157.051 93.4446C153.877 97.3531 153.042 102.281 155.046 106.53Z" fill="#00963D"/>
<path d="M130.486 227.864C127.144 228.884 122.633 229.563 117.621 230.583L133.827 277.145L137.002 286.322H151.203L130.653 227.694C130.82 227.694 130.653 227.864 130.486 227.864Z" fill="#00963D"/>
<path d="M27.0637 186.399C26.8967 186.569 26.8967 186.739 26.7296 186.739C26.5625 187.079 26.5625 187.588 26.5625 187.928C26.7296 188.608 27.0637 189.118 27.8991 189.118H61.1477C71.3394 189.118 82.8678 188.268 95.3987 184.02C101.748 181.981 108.097 178.922 114.78 174.843C122.967 169.745 131.488 162.948 140.009 153.601C140.176 153.431 140.343 153.431 140.51 153.262C141.011 153.092 141.345 153.092 141.846 153.092C142.348 153.601 142.348 154.281 142.348 154.791C137.837 166.347 126.308 189.118 105.256 203.052H118.288H133.325C139.674 203.052 145.522 202.033 150.702 200.333C158.053 197.954 163.901 194.046 168.078 189.628C168.913 188.608 169.748 187.588 170.584 186.739C170.918 186.229 171.419 185.549 171.753 185.039C191.134 153.092 197.985 102.451 197.985 102.451L190.633 98.8825C190.299 98.7125 190.132 98.5426 189.965 98.3727C189.464 97.8629 189.631 97.3531 190.132 96.5034L195.813 89.5361C192.304 82.5687 179.773 71.0132 161.562 71.0132C150.702 71.0132 141.011 73.9021 132.49 79.6798C132.49 79.6798 123.969 85.6276 111.104 96.5034C108.264 98.8825 105.423 101.431 102.249 104.15C98.9073 107.039 95.5658 110.098 92.0571 113.497C87.0448 118.255 81.6983 123.353 76.3518 128.791C66.6613 138.647 56.3024 149.863 46.1106 162.438C39.2604 170.085 33.0785 178.072 27.0637 186.399ZM156.716 93.6145C156.883 93.4446 156.883 93.4446 157.051 93.2746C159.223 91.0655 162.23 89.8759 165.07 89.8759C165.572 89.8759 166.24 89.8759 166.741 90.0459C168.579 90.3857 170.417 91.0655 171.92 92.4249C172.255 92.7648 172.589 93.1047 172.923 93.4446C173.591 94.2942 174.26 95.1439 174.761 96.1635C175.596 97.8629 176.097 99.7321 176.097 101.431C176.097 104.32 175.095 107.209 172.923 109.588C170.751 111.797 167.744 112.987 164.903 112.987C161.896 112.987 158.888 111.967 156.883 109.588C156.382 109.079 156.048 108.569 155.547 108.059C155.38 107.719 155.213 107.549 155.046 107.209C154.878 107.039 154.879 106.869 154.711 106.699C152.874 102.451 153.375 97.353 156.716 93.6145Z" fill="#DC000F"/>
</g>
</svg>
