<svg height="512" viewBox="0 0 54 57" width="512" xmlns="http://www.w3.org/2000/svg"><path d="M37 12h-3v11a2 2 0 01-2 2H22a2 2 0 01-2-2V12h-3a1 1 0 01-.707-1.707l10-10a1 1 0 011.414 0l10 10A1 1 0 0137 12zM13 29a1 1 0 01-1-1V15a1 1 0 012 0v13a1 1 0 01-1 1zm-6 6a1 1 0 01-1-1V21a1 1 0 012 0v13a1 1 0 01-1 1zm34-6a1 1 0 01-1-1V15a1 1 0 012 0v13a1 1 0 01-1 1zm6 6a1 1 0 01-1-1V21a1 1 0 012 0v13a1 1 0 01-1 1zm7 10.5c0 .856-.958 1.8-2.629 2.6A25.468 25.468 0 0141 50a27.876 27.876 0 01-9.028-1.361C37.406 47.847 42 45.754 42 42.5v-1.48c6.931.201 12 2.453 12 4.48z"/><path d="M14 38.855a10.4 10.4 0 001.771 1.045A27.5 27.5 0 0027 42a27.5 27.5 0 0011.229-2.1A10.4 10.4 0 0040 38.855V42.5c0 2.124-5.56 4.5-13 4.5s-13-2.376-13-4.5z"/><path d="M27 31c7.44 0 13 2.376 13 4.5 0 .856-.958 1.8-2.629 2.6A25.468 25.468 0 0127 40a25.468 25.468 0 01-10.371-1.9C14.958 37.3 14 36.356 14 35.5c0-3.151 8.733-4.5 13-4.5zM12 41.02v1.48c0 3.253 4.593 5.347 10.027 6.139A27.873 27.873 0 0113 50a25.468 25.468 0 01-10.371-1.9C.958 47.3 0 46.356 0 45.5c0-2.027 5.069-4.279 12-4.48z"/><path d="M13 57c-7.44 0-13-2.376-13-4.5v-3.645A10.4 10.4 0 001.771 49.9 27.5 27.5 0 0013 52a27.48 27.48 0 0011.236-2.1c.555-.262 1.087-.57 1.59-.922H26V52.5c0 2.124-5.56 4.5-13 4.5zm28 0c-7.44 0-13-2.376-13-4.5v-3.519h.174c.506.353 1.042.663 1.6.926A27.5 27.5 0 0041 52a27.5 27.5 0 0011.229-2.1A10.4 10.4 0 0054 48.855V52.5c0 2.124-5.56 4.5-13 4.5z"/></svg>