<svg height="512" width="512" xmlns="http://www.w3.org/2000/svg"><path d="M358.554 317.317c82.051 0 148.804-66.753 148.804-148.803 0-82.051-66.753-148.804-148.804-148.804S209.75 86.463 209.75 168.514c0 82.05 66.753 148.803 148.804 148.803zm0-277.607c71.022 0 128.804 57.781 128.804 128.804 0 71.022-57.781 128.803-128.804 128.803-71.022 0-128.804-57.781-128.804-128.803 0-71.023 57.781-128.804 128.804-128.804z"/><path d="M358.554 273.317c57.789 0 104.804-47.015 104.804-104.804S416.343 63.709 358.554 63.709 253.75 110.725 253.75 168.514s47.015 104.803 104.804 104.803zm0-189.607c46.761 0 84.804 38.043 84.804 84.804s-38.043 84.804-84.804 84.804-84.804-38.043-84.804-84.804 38.043-84.804 84.804-84.804z"/><path d="M341.76 193.485c-3.465-4.301-9.759-4.978-14.061-1.514-4.301 3.465-4.978 9.76-1.514 14.061 5.513 6.843 13.416 10.731 21.288 12.594.419 5.137 4.721 9.175 9.966 9.175 4.997 0 9.138-3.665 9.881-8.454 14.084-2.514 23.967-11.891 25.588-24.657 1.884-14.829-7.735-29.05-23.391-34.584-.713-.252-1.405-.498-2.078-.739v-19.266c.833.531 1.454 1.111 1.848 1.671 3.17 4.521 9.407 5.616 13.93 2.442 4.521-3.172 5.614-9.409 2.441-13.93-3.637-5.185-9.989-9.584-18.225-11.396-.178-5.367-4.584-9.663-9.994-9.663-5.523 0-10 4.477-10 10v.335c-.614.161-1.232.334-1.854.522-10.498 3.163-18.42 13.33-19.265 24.726-.84 11.325 5.154 21.148 16.033 26.278 1.186.56 2.919 1.292 5.085 2.155v24.378c-2.293-1.032-4.285-2.405-5.678-4.134zm31.307-1.315c-.372 2.929-2.355 5.166-5.628 6.492v-17.371c4.393 3.086 6.063 7.459 5.628 10.879zm-26.8-45.883c.095-1.29.523-2.568 1.173-3.684v7.82c-.905-1.173-1.292-2.545-1.173-4.136zm165.692 213.56c-.526-12.139-6.155-22.577-15.85-29.39-15.977-11.229-37.541-9.279-51.278 4.635-.44.446-.838.932-1.187 1.453l-21.938 32.685c-6.142-14.497-20.412-24.681-36.991-24.681l-157.832-.106h-.007a9.995 9.995 0 00-6.521 2.419l-39.54 34.017H151.96v-8.789c0-5.523-4.478-10-10-10H97.93v-1.368c0-5.523-4.478-10-10-10H10c-5.523 0-10 4.477-10 10V478c0 5.523 4.477 10 10 10h77.93c5.522 0 10-4.477 10-10v-1.368h44.029c5.522 0 10-4.477 10-10v-9.234h33.157l29.954 31.753a10.002 10.002 0 007.274 3.138l.141-.001 206.514-2.897a10 10 0 008.066-4.284l65.616-94.224.121-.178c6.353-9.555 9.605-20.514 9.157-30.858zM77.93 468H20v-97.278h57.93zm54.029-11.367H97.93V382.09h34.029zm354.246-77.088l-62.619 89.921-196.984 2.763-29.896-31.692a10 10 0 00-7.274-3.138H151.96v-36.52h32.565a9.995 9.995 0 006.521-2.419l39.537-34.014 154.125.104c11.147 0 20.216 9.236 20.216 20.589 0 11.352-9.068 20.587-20.216 20.587l-.078.001h-86.24a10.001 10.001 0 00-7.257 3.12l-21.038 22.19c-3.8 4.008-3.631 10.337.377 14.137a9.967 9.967 0 006.878 2.743 9.972 9.972 0 007.259-3.12l18.08-19.07 99.847.004h.003a10 10 0 008.303-4.427l48.832-72.751c6.863-6.396 17.215-7.16 24.935-1.732 10.421 7.323 8.693 21.986 1.596 32.724z"/></svg>