<svg height="512" viewBox="0 0 59 60" width="512" xmlns="http://www.w3.org/2000/svg"><g id="Page-1" fill="none" fill-rule="evenodd"><g id="028---Calorie-Counting" fill-rule="nonzero"><circle id="Oval" cx="29" cy="29.889" fill="#b49aca" r="29"/><circle id="Oval" cx="29" cy="29.889" fill="#ecf0f1" r="19"/><circle id="Oval" cx="41.5" cy="42.5" fill="#ff5364" r="17.5"/><path id="Shape" d="m13 12v11c.0014703 1.8238506-1.233358 3.416779-3 3.87-.32573075.0893041-.66226279.1330533-1 .13h-4c-.33773721.0030533-.67426925-.0406959-1-.13-1.76664204-.453221-3.00147026-2.0461494-3-3.87v-11c-.00090913-.5819653.25528603-1.1346149.7-1.51.78709163-.69010995 1.97591029-.6462421 2.71.1.3798589.3704612.59282307.8794095.59 1.41.00275976-1.0260606.77935991-1.8846352 1.8-1.99.13299832-.01336683.26700168-.01336683.4 0 .4585925.0464431.88656633.2515876 1.21.58.3798589.3704612.59282307.8794095.59 1.41.0032948-1.1032019.89679813-1.9967052 2-2 .478964-.00274728.9420134.1717867 1.3.49.039097.0305579.0758652.0639836.11.1.3798589.3704612.5928231.8794095.59 1.41z" fill="#3b97d3"/><path id="Shape" d="m10 26.87v24.13c0 1.6568542-1.34314575 3-3 3s-3-1.3431458-3-3v-24.13c.32573075.0893041.66226279.1330533 1 .13h4c.33773721.0030533.67426925-.0406959 1-.13z" fill="#2980ba"/><path id="Shape" d="m22 32v19c0 1.6568542-1.3431458 3-3 3s-3-1.3431458-3-3v-19z" fill="#2980ba"/><path id="Shape" d="m22 11v21h-6v-7c0-13.43 2.24-15 5-15 .5522847 0 1 .4477153 1 1z" fill="#3b97d3"/><g fill="#fff"><path id="Shape" d="m32.781 37.375c-.1657145-.2072013-.4069781-.3400545-.670678-.3693128-.2636998-.0292583-.5282179.0474769-.735322.2133128l-3.375 2.7v-1.919c0-.5522847-.4477153-1-1-1s-1 .4477153-1 1v8c0 .5522847.4477153 1 1 1s1-.4477153 1-1v-1.919l3.375 2.7c.4313344.345178 1.060822.2753344 1.406-.156s.2753344-1.060822-.156-1.406l-4.025-3.219 4.024-3.219c.2073518-.1655696.3403985-.406761.369845-.6704672.0294466-.2637061-.0471215-.528304-.212845-.7355328z"/><path id="Shape" d="m37 39h1c.5522847 0 1 .4477153 1 1s.4477153 1 1 1 1-.4477153 1-1c0-1.6568542-1.3431458-3-3-3h-1c-1.6568542 0-3 1.3431458-3 3v4c0 1.6568542 1.3431458 3 3 3h1c1.6568542 0 3-1.3431458 3-3 0-.5522847-.4477153-1-1-1s-1 .4477153-1 1-.4477153 1-1 1h-1c-.5522847 0-1-.4477153-1-1v-4c0-.5522847.4477153-1 1-1z"/><path id="Shape" d="m46.937 37.649c-.1458609-.3912402-.5194545-.6506706-.937-.6506706s-.7911391.2594304-.937.6506706l-3 8c-.125043.3347579-.0619963.7107965.1653911.9864658.2273873.2756694.5845697.4090886.937.3500001.3524303-.0590886.646566-.301708.7716089-.6364659l.506-1.349h3.114l.506 1.351c.1464095.3905823.5198787.6492605.937.649.1200944-.0004789.2391947-.0217951.352-.063.2484247-.0931594.4496452-.281224.5593638-.5227925s.1189407-.5168373.0256362-.7652075zm-1.744 5.351.807-2.152.807 2.152z"/><path id="Shape" d="m57 45h-4v-7c0-.5522847-.4477153-1-1-1s-1 .4477153-1 1v8c0 .5522847.4477153 1 1 1h5c.5522847 0 1-.4477153 1-1s-.4477153-1-1-1z"/></g><path id="Shape" d="m5 12v8c0 .5522847-.44771525 1-1 1s-1-.4477153-1-1v-10c1.10116878.0081672 1.99183278.8988312 2 2z" fill="#285680"/><path id="Shape" d="m11 10v10c0 .5522847-.4477153 1-1 1-.55228475 0-1-.4477153-1-1v-8c.0032948-1.1032019.89679813-1.9967052 2-2z" fill="#285680"/></g></g></svg>