<svg xmlns="http://www.w3.org/2000/svg" data-name="Layer 1" width="512" height="512"><path d="M214.251 180.427a5 5 0 015-5h36.521a42.04 42.04 0 0138.577 25.44h19.639a58.294 58.294 0 00-55.635-40.986h-.031l-58.322.024a4.578 4.578 0 00-4.571 4.573v36.389h18.825zm73.498 36.973a32.007 32.007 0 00-.674-6.537h-62.823v15.685h62.157a31.884 31.884 0 001.34-9.148z"/><path d="M255.772 185.427h-31.52v15.44h58.879a31.988 31.988 0 00-27.359-15.44zM89.872 429.2A238.246 238.246 0 00251 495.939v-33.283A206 206 0 01113.474 405.6zm134.379-179.818h31.521a31.949 31.949 0 0025.6-12.83h-57.121zM49.344 261H16.061A238.246 238.246 0 0082.8 422.128l23.6-23.6A206 206 0 0149.344 261zM251 49.344V16.061A238.244 238.244 0 0089.873 82.8l23.6 23.6A205.991 205.991 0 01251 49.344zm10 0A205.991 205.991 0 01398.526 106.4l23.6-23.6A238.244 238.244 0 00261 16.061zM16.061 251h33.283A206 206 0 01106.4 113.473l-23.6-23.6A238.244 238.244 0 0016.061 251zM405.6 113.473A206 206 0 01462.656 251h33.283A238.244 238.244 0 00429.2 89.873zm-210.174 97.394h18.825v15.685h-18.825z"/><path d="M452.72 256c0-108.472-88.248-196.72-196.72-196.72S59.28 147.528 59.28 256 147.528 452.72 256 452.72 452.72 364.472 452.72 256zM256 420.74c-90.838 0-164.74-73.9-164.74-164.74S165.162 91.26 256 91.26 420.74 165.162 420.74 256 346.838 420.74 256 420.74z"/><path d="M405.6 398.527l23.6 23.6A238.246 238.246 0 00495.939 261h-33.283A206 206 0 01405.6 398.527zM256 101.26c-85.324 0-154.74 69.416-154.74 154.74S170.676 410.74 256 410.74 410.74 341.324 410.74 256 341.324 101.26 256 101.26zm70.574 116.84a68.294 68.294 0 01-.542 8.449h13.839a5 5 0 010 10h-15.852a68.331 68.331 0 01-65.667 49.773H228.3a4.631 4.631 0 00-4.625 4.625v52.042a19.127 19.127 0 11-38.253 0V236.552h-13.3a5 5 0 010-10h13.3v-15.685h-13.3a5 5 0 010-10h13.3v-36.389a14.59 14.59 0 0114.567-14.573l58.324-.024h.037a68.269 68.269 0 0166.024 50.986h15.493a5 5 0 010 10h-13.679a69.461 69.461 0 01.386 7.233zM261 462.656v33.283A238.246 238.246 0 00422.128 429.2l-23.6-23.6A206 206 0 01261 462.656z"/><path d="M297.237 210.867a41.814 41.814 0 01-.5 15.685h19.221a58.428 58.428 0 00.62-8.449 59.065 59.065 0 00-.46-7.236zm-41.465 48.515h-36.521a5 5 0 01-5-5v-17.83h-18.825v106.44a9.127 9.127 0 1018.253 0V290.95a14.641 14.641 0 0114.621-14.625h30.048a58.311 58.311 0 0055.209-39.773h-20.449a42.011 42.011 0 01-37.336 22.83z"/></svg>