<svg height="512pt" viewBox="-3 0 512 512.001" width="512pt" xmlns="http://www.w3.org/2000/svg"><path d="M399.559 260.555a7.5 7.5 0 007.5-7.5v-16.84a7.5 7.5 0 00-7.5-7.5 7.497 7.497 0 00-7.5 7.5v16.84c0 4.144 3.355 7.5 7.5 7.5zm0 0"/><path d="M483.137 261.828h-20.582c-5.27-20.633-14.903-40.258-28.067-57.086-13.261-16.949-30.172-31.164-49.11-41.316V109c0-4.547-1.96-8.875-5.382-11.875a15.751 15.751 0 00-12.437-3.781c-29.508 3.902-53.848 23.965-63.457 51.777h-7.914c.12-1.7.183-3.406.183-5.129 0-37.933-30.851-68.793-68.777-68.793-37.934 0-68.793 30.86-68.793 68.793 0 5.254.61 10.434 1.773 15.453-27.402 10.477-51.203 28.285-69.148 51.817a7.498 7.498 0 001.418 10.511 7.454 7.454 0 004.539 1.536 7.5 7.5 0 005.972-2.95c16.16-21.191 37.555-37.254 62.188-46.754a69.495 69.495 0 0013.371 18.965c-.785.2-1.566.41-2.348.625a7.504 7.504 0 00-5.23 9.23 7.509 7.509 0 007.227 5.5c.66 0 1.335-.09 2.003-.273a108.344 108.344 0 0116.95-3.265c8.558-.942 3.59-.657 90.566-.664 4.145 0 7.5-3.356 7.5-7.5a7.5 7.5 0 00-7.5-7.5h-8.176a67.977 67.977 0 0013.504-24.602h16.238a7.499 7.499 0 007.25-5.578c6.57-24.785 27.227-42.969 52.618-46.324.082-.016.332-.043.59.183.183.16.273.36.273.602v58.988c0 2.848 1.61 5.45 4.16 6.715 38.008 18.898 65.945 54.856 74.734 96.188a7.497 7.497 0 007.336 5.937h26.528c3.828 0 6.941 3.113 6.941 6.938v55.511c0 3.82-3.113 6.93-6.941 6.93h-28.75c-5.742 0-10.922 3.422-13.2 8.734a141.488 141.488 0 01-7.667 15.34 7.493 7.493 0 002.73 10.246 7.494 7.494 0 0010.246-2.73 154.825 154.825 0 008.324-16.59h28.317c12.097 0 21.941-9.836 21.941-21.93V283.77c0-12.098-9.844-21.942-21.941-21.942zm-284.68-76.61c-15.266-9.866-24.66-26.984-24.66-45.226 0-29.66 24.133-53.789 53.793-53.789 29.656 0 53.781 24.129 53.781 53.79 0 3.609-.351 7.152-1.035 10.593-.09.328-.16.664-.207 1.008-2.934 13.46-10.934 25.3-22.668 33.129-46.516.156-49.469-.36-59.004.496zm227.797 208.915a7.498 7.498 0 00-10.594.476 141.509 141.509 0 01-22.594 19.942 7.489 7.489 0 00-3.164 5.879c-.527 16.484-2.187 34.843-4.933 54.562-1.75 12.57-12.61 22.008-25.293 22.008h-.137c-12.426-.066-23.144-9.54-25.164-22.137-1.34-9.664-2.422-19.031-3.223-27.847-.43-4.66-.785-9.172-1.062-13.414a422.725 422.725 0 01-.645-13.34c-.129-4.14-3.633-7.418-7.73-7.258a7.501 7.501 0 00-7.262 7.73 430.896 430.896 0 001.067 19.43c-1.075.024-2.145.04-3.204.04h-97.46c-5.012 0-10.215-.294-15.473-.872a7.485 7.485 0 00-5.57 1.652 7.491 7.491 0 00-2.72 5.133 597.536 597.536 0 01-3.327 28.875C186.02 487.54 175.148 497 162.476 497c-12.667 0-23.542-9.46-25.289-22.008a33.872 33.872 0 01-.085-.62 4.508 4.508 0 01-.032-.227c-.011-.07-.02-.141-.03-.211-1.485-10.817-3.196-25.38-4.173-40.793-1.93-31.125.219-49.852 2.078-59.446a7.503 7.503 0 00-5.937-8.789c-4.07-.785-8.004 1.871-8.79 5.938-1.757 9.074-2.687 19.16-3.015 29.668-27.012-26.192-42.285-61.832-42.387-99.969-.004-.617 0-1.23.008-1.848v-.222c.238-19.618 4.586-38.594 12.946-56.438a7.503 7.503 0 00-3.61-9.976 7.503 7.503 0 00-9.973 3.613c-8.226 17.562-12.953 36.117-14.097 55.277-21.621.344-36.82 4.938-47.52 14.262-10.738 9.383-15.027 22.77-11.187 34.945 5.73 18.164 26.824 24.258 39.629 11.192 4.582-4.676 6.77-10.793 6.004-16.79a7.502 7.502 0 00-8.391-6.488 7.497 7.497 0 00-6.488 8.39c.258 2.009-1.2 3.74-1.836 4.388-1.684 1.718-4.07 2.691-6.074 2.476-3.965-.426-7.153-3.297-8.536-7.68-2.05-6.5.473-13.652 6.743-19.128 7.73-6.743 20.027-10.211 37.488-10.555 1.64 44.879 22.297 86.219 57.316 114.613.574 18.488 2.528 38.098 5.09 56.485C125.102 496.98 142.363 512 162.477 512c20.113 0 37.37-15.02 40.144-34.941a627.832 627.832 0 002.691-22.16c3.227.203 6.415.304 9.543.304h97.457c1.504 0 3.024-.023 4.551-.066a631.596 631.596 0 002.567 21.207c.03.234.066.472.105.707v.008l.035.222c3.188 19.754 20.172 34.614 39.887 34.719.074 0 .145.004.219 0 20.129 0 37.367-14.984 40.148-34.938 2.617-18.796 4.274-36.425 4.934-52.468a156.287 156.287 0 0021.969-19.864 7.499 7.499 0 00-.473-10.597zm0 0"/><path d="M232.77 132.488h-10.364a4.123 4.123 0 01-4.117-4.117 4.122 4.122 0 014.117-4.113h19.832c4.145 0 7.5-3.356 7.5-7.5a7.5 7.5 0 00-7.5-7.5h-6.035v-3.711c0-4.145-3.355-7.5-7.5-7.5a7.5 7.5 0 00-7.5 7.5v3.75c-9.98.621-17.914 8.941-17.914 19.078 0 10.54 8.574 19.113 19.117 19.113h10.364a4.121 4.121 0 014.113 4.114 4.119 4.119 0 01-4.113 4.113h-19.836a7.5 7.5 0 100 15h8.27v3.715a7.5 7.5 0 1015 0v-4.024c8.905-1.62 15.679-9.437 15.679-18.804 0-10.54-8.574-19.114-19.113-19.114zm-140.508 5.086c37.93 0 68.789-30.855 68.789-68.789C161.05 30.855 130.19 0 92.26 0 78.482 0 65.18 4.063 53.798 11.754a7.493 7.493 0 00-2.016 10.41 7.502 7.502 0 0010.414 2.02C71.085 18.176 81.485 15 92.262 15c29.66 0 53.789 24.129 53.789 53.785 0 29.66-24.13 53.79-53.79 53.79-29.656 0-53.784-24.13-53.784-53.79 0-8.601 1.968-16.816 5.847-24.418a7.499 7.499 0 00-3.27-10.09 7.5 7.5 0 00-10.09 3.27c-4.898 9.594-7.487 20.398-7.487 31.238 0 37.934 30.855 68.79 68.785 68.79zm0 0"/><path d="M93.379 26.848a7.5 7.5 0 00-7.5 7.5v3.75c-9.98.62-17.91 8.941-17.91 19.078 0 10.539 8.57 19.113 19.113 19.113h10.363a4.119 4.119 0 014.114 4.113 4.119 4.119 0 01-4.114 4.114H77.613c-4.144 0-7.5 3.355-7.5 7.5s3.356 7.5 7.5 7.5h8.27v3.71c0 4.145 3.355 7.5 7.5 7.5a7.5 7.5 0 007.5-7.5v-4.019c8.902-1.621 15.676-9.437 15.676-18.805 0-10.539-8.575-19.113-19.114-19.113H87.082a4.119 4.119 0 01-4.113-4.113 4.116 4.116 0 014.113-4.114h19.832a7.5 7.5 0 007.5-7.5c0-4.144-3.355-7.5-7.5-7.5h-6.031v-3.714a7.503 7.503 0 00-7.504-7.5zm0 0"/></svg>