<svg xmlns="http://www.w3.org/2000/svg" viewBox="0 0 511.999 511.999"><path d="M509.588 117.341L387.513 3.001a7.62 7.62 0 00-10.417 0l-122.075 114.34a7.618 7.618 0 005.209 13.18h48.033v20.535a7.619 7.619 0 1015.238 0v-28.153a7.619 7.619 0 00-7.619-7.619h-36.373l102.796-96.282L485.1 115.283h-36.372a7.619 7.619 0 00-7.619 7.619v260.784a7.619 7.619 0 1015.238 0V130.521h48.033a7.62 7.62 0 005.208-13.18zm-60.86 289.202a7.619 7.619 0 00-7.619 7.619v81.655H323.501v-6.481a7.619 7.619 0 10-15.238 0v14.1a7.619 7.619 0 007.619 7.619h132.847a7.619 7.619 0 007.619-7.619v-89.273a7.621 7.621 0 00-7.62-7.62z"/><path d="M191.428 128.2a7.619 7.619 0 100 15.238c97.151 0 176.19 79.039 176.19 176.19s-79.039 176.19-176.19 176.19-176.19-79.039-176.19-176.19c0-83.82 59.571-156.496 141.647-172.807a7.618 7.618 0 005.987-8.958 7.615 7.615 0 00-8.958-5.987C64.73 149.599 0 228.56 0 319.628c0 105.554 85.874 191.428 191.428 191.428s191.428-85.874 191.428-191.428S296.982 128.2 191.428 128.2z"/><path d="M301.298 209.758c-60.583-60.583-159.157-60.582-219.739 0-60.583 60.582-60.583 159.156 0 219.739 30.291 30.291 70.08 45.437 109.87 45.437 39.789 0 79.578-15.145 109.869-45.437 60.583-60.583 60.583-159.157 0-219.739zm-10.775 208.963c-54.641 54.641-143.549 54.642-198.19 0-54.641-54.641-54.641-143.549 0-198.19 27.32-27.32 63.208-40.981 99.095-40.981s71.774 13.66 99.095 40.981c54.641 54.642 54.641 143.55 0 198.19z"/><path d="M199.048 312.502v-56.117c15.812 2.785 27.68 14.044 27.68 27.478a7.619 7.619 0 1015.238 0c0-21.699-18.654-39.726-42.918-42.889v-7.18a7.619 7.619 0 10-15.238 0v7.18c-24.264 3.163-42.918 21.191-42.918 42.889s18.654 39.727 42.918 42.891v56.117c-15.813-2.788-27.68-14.046-27.68-27.479a7.619 7.619 0 10-15.238 0c0 21.699 18.654 39.726 42.918 42.889v7.18a7.619 7.619 0 1015.238 0v-7.18c24.264-3.163 42.918-21.191 42.918-42.889s-18.654-39.726-42.918-42.89zm-15.238-1.162c-15.813-2.786-27.68-14.044-27.68-27.478 0-13.434 11.867-24.692 27.68-27.478v54.956zm15.237 71.53v-54.956c15.813 2.785 27.68 14.044 27.68 27.478s-11.867 24.692-27.68 27.478z"/></svg>