<svg height="512" viewBox="0 0 60 60" width="512" xmlns="http://www.w3.org/2000/svg"><path d="M31 0H7a7.008 7.008 0 00-7 7v34a7.008 7.008 0 007 7h8v11a1 1 0 001 1h6a1 1 0 001-1V48h8a7.008 7.008 0 007-7V7a7.008 7.008 0 00-7-7zM21 58h-4V48h4zm15-17a5.006 5.006 0 01-5 5H7a5.006 5.006 0 01-5-5V7a5.006 5.006 0 015-5h24a5.006 5.006 0 015 5z"/><path d="M31 5H7a2 2 0 00-2 2v3a1 1 0 002 0V7h24v22a1 1 0 002 0V7a2 2 0 00-2-2zm1 32a1 1 0 00-1 1v3H7V19a1 1 0 00-2 0v22a2 2 0 002 2h24a2 2 0 002-2v-3a1 1 0 00-1-1z"/><path d="M12 30a2 2 0 00-2 2v4a2 2 0 002 2h14a2 2 0 002-2v-4a2 2 0 00-2-2h-3V12a2 2 0 00-2-2h-4.4a1.981 1.981 0 00-1.739 1.012 5.639 5.639 0 01-3.574 2.826A2 2 0 0010 15.708v4.106a1.993 1.993 0 00.786 1.595 1.97 1.97 0 001.724.341 12.478 12.478 0 002.49-1V30zm4.472-11.882a1 1 0 00-1.027.05A11.851 11.851 0 0112 19.814l-.015-4.1A7.657 7.657 0 0016.6 12H21v19a1 1 0 001 1h4v4H12v-4h4a1 1 0 001-1V19a1 1 0 00-.528-.882zM60 10a10 10 0 10-11 9.949V22h-7a2 2 0 00-2 2v2a2 2 0 001.2 1.828L49 55.142V59a1 1 0 002 0v-3.858l7.8-27.314A2 2 0 0060 26v-2a2 2 0 00-2-2h-7v-2.051A10.013 10.013 0 0060 10zM50 51.36L48.469 46h3.062zM47.9 44l-1.142-4h6.49L52.1 44zm-1.714-6l-1.146-4h9.92l-1.143 4zM58 26h-6a1 1 0 000 2h4.674l-1.143 4H44.469l-1.143-4H46a1 1 0 000-2h-4v-2h16zM42 10a8 8 0 118 8 8.009 8.009 0 01-8-8z"/><path d="M55 10a5 5 0 10-10 0 5 5 0 0010 0zm-8 0a3 3 0 116 0 3 3 0 01-6 0z"/></svg>