<svg height="512pt" viewBox="0 -20 512.008 512" width="512pt" xmlns="http://www.w3.org/2000/svg"><path d="M481.129 247.324c-8.219-.992-15.692 4.89-16.672 13.117-12.328 103.29-100.297 181.184-204.621 181.184-47.984 0-94.703-16.828-131.55-47.379-32.462-26.914-55.907-63.23-67.079-103.441l17.922 9.843c7.262 3.989 16.379 1.336 20.367-5.925 3.988-7.262 1.336-16.383-5.926-20.371L47.54 249.07c-7.255-3.984-16.368-1.34-20.36 5.91L1.863 300.953c-3.996 7.258-1.351 16.379 5.903 20.375 9.359 4.29 16.636.34 20.375-5.902l5.886-10.692c13.403 43.73 39.532 83.106 75.11 112.606 42.218 35.004 95.738 54.281 150.695 54.281 119.512 0 220.285-89.258 234.41-207.629.985-8.222-4.89-15.687-13.113-16.668zm21.805-119.23c-7.602-3.278-16.434.226-19.711 7.832l-4.723 10.953c-15.402-37.598-40.54-71.121-72.742-96.445C363.805 17.44 313.344.004 259.836.004c-54.477 0-107.625 18.973-149.66 53.43-41.457 33.976-70.348 81.398-81.348 133.523-1.71 8.106 3.477 16.063 11.582 17.773 10.016.329 16.281-4.52 17.77-11.578 9.597-45.472 34.816-86.851 71.011-116.52 36.688-30.07 83.086-46.628 130.645-46.628 46.715 0 90.766 15.219 127.379 44.008 29.683 23.343 52.488 54.648 65.668 89.68l-18.988-8.169c-7.606-3.27-16.434.243-19.707 7.852s.242 16.434 7.851 19.707l48.25 20.754c8.668 2.676 16.008 1.184 19.703-7.84l20.778-48.191c3.28-7.606-.227-16.43-7.836-19.711zm0 0"/><path d="M168.54 269.246c-8.282 0-15 6.715-15 15v6.012c0 31.512 25.663 57.148 57.206 57.148h6.234v26.7c0 8.285 6.72 15 15 15 8.286 0 15-6.715 15-15v-26.7h18.036v26.7c0 8.285 6.714 15 15 15 8.28 0 15-6.715 15-15v-26.7h6.234c31.543 0 57.207-25.636 57.207-57.148v-8.695c0-22.454-15.117-42.352-36.762-48.395l-26.683-7.45V152.09h6.238c15 0 27.207 12.18 27.207 27.152v2.414c0 8.281 6.715 15 14.996 15 8.285 0 15-6.719 15-15v-2.414c0-31.515-25.66-57.152-57.203-57.152h-6.238V97.523c0-8.285-6.715-15-14.996-15-8.286 0-15 6.715-15 15v24.567H246.98V97.523c0-8.285-6.714-15-15-15-8.285 0-15 6.715-15 15v24.567h-6.238c-31.539 0-57.203 25.637-57.203 57.152 0 22.45 15.117 42.348 36.758 48.39l26.683 7.45v82.324h-6.234c-15 0-27.207-12.18-27.207-27.148v-6.012c0-8.285-6.715-15-15-15zm145.093-7.183c8.726 2.437 14.824 10.453 14.824 19.496v8.699c0 14.969-12.203 27.148-27.203 27.148h-6.238v-60.543zM265.016 152.09v65.254l-18.036-5.035v-60.22zm-66.653 46.648c-8.726-2.437-14.824-10.453-14.824-19.5 0-14.968 12.207-27.148 27.207-27.148h6.234v51.844zm48.617 44.719l18.036 5.031v68.918H246.98zm0 0"/></svg>